<?xml version="1.0" standalone="no"?>
<!DOCTYPE svg PUBLIC "-//W3C//DTD SVG 20010904//EN"
 "http://www.w3.org/TR/2001/REC-SVG-20010904/DTD/svg10.dtd">
<svg version="1.0" xmlns="http://www.w3.org/2000/svg"
 width="700.000000pt" height="700.000000pt" viewBox="0 0 700.000000 700.000000"
 preserveAspectRatio="xMidYMid meet">
<metadata>
Created by potrace 1.11, written by Peter Selinger 2001-2013
</metadata>
<g transform="translate(0.000000,700.000000) scale(0.100000,-0.100000)"
fill="#000000" stroke="none">
<path d="M3339 6996 c-2 -2 -42 -6 -89 -10 -47 -3 -94 -7 -105 -10 -11 -2 -47
-7 -80 -11 -77 -9 -234 -39 -339 -66 -91 -22 -330 -95 -361 -109 -11 -5 -48
-20 -83 -34 -222 -88 -410 -186 -632 -331 -52 -34 -115 -71 -141 -82 -25 -11
-61 -33 -80 -50 -74 -64 -162 -123 -182 -124 -53 -2 -84 -12 -116 -38 -51 -40
-72 -73 -82 -127 -14 -73 -38 -110 -108 -167 -40 -32 -68 -63 -74 -82 -29 -98
-51 -137 -92 -165 -66 -45 -132 -116 -152 -162 -27 -63 -65 -132 -90 -164 -94
-120 -113 -161 -129 -279 -8 -59 -22 -77 -85 -112 -61 -33 -84 -76 -74 -140 4
-27 16 -55 30 -69 20 -20 28 -22 55 -14 18 5 43 17 57 25 30 20 120 111 140
142 23 35 37 28 29 -14 -4 -21 -10 -73 -13 -115 -5 -71 -3 -80 18 -106 13 -15
35 -51 48 -80 13 -28 32 -54 42 -57 29 -9 71 17 91 55 19 37 103 218 109 235
2 6 37 71 78 144 41 74 85 166 98 205 22 66 65 133 102 163 61 48 127 93 138
93 18 0 16 -25 -2 -40 -8 -6 -35 -46 -60 -88 -45 -75 -83 -132 -137 -202 -15
-19 -36 -71 -48 -114 -11 -44 -39 -118 -62 -165 -69 -147 -105 -232 -148 -351
-42 -115 -42 -115 -41 -250 1 -125 3 -136 22 -152 27 -23 62 -23 81 0 9 9 24
51 33 92 103 443 229 729 470 1070 321 452 799 807 1328 986 100 34 198 62
247 70 14 3 41 9 60 14 19 4 69 14 110 20 41 6 87 13 101 16 155 24 493 25
662 2 163 -22 272 -43 377 -71 349 -95 669 -255 970 -487 113 -88 339 -311
434 -430 152 -191 296 -431 386 -645 23 -55 46 -109 51 -120 50 -116 126 -411
144 -555 4 -30 9 -66 10 -80 25 -195 25 -507 0 -662 -2 -13 -6 -51 -9 -84 -8
-89 -70 -368 -96 -429 -4 -11 -20 -56 -35 -100 -90 -267 -280 -606 -457 -814
-61 -71 -296 -309 -369 -373 -100 -88 -329 -241 -457 -307 -195 -98 -458 -203
-597 -236 -16 -4 -37 -8 -45 -10 -48 -12 -223 -45 -265 -51 -27 -3 -59 -9 -70
-12 -35 -9 -497 -10 -570 -1 -172 21 -203 26 -340 59 -494 117 -924 359 -1291
725 -113 112 -234 257 -234 278 0 14 50 135 103 247 19 41 46 100 60 130 34
76 195 413 325 680 239 493 311 637 330 660 l21 25 24 -25 c13 -14 41 -65 62
-115 21 -49 105 -236 188 -415 82 -179 168 -368 192 -420 123 -272 192 -421
265 -565 79 -158 54 -149 455 -153 215 -1 329 1 346 9 59 24 46 62 -154 469
-68 140 -143 293 -165 340 -22 47 -100 207 -172 355 -133 271 -257 526 -326
672 -20 43 -79 165 -130 271 -52 107 -94 196 -94 198 0 2 -78 162 -173 357
-147 299 -180 358 -213 385 -21 17 -52 35 -70 38 -40 7 -98 -17 -137 -57 -22
-24 -327 -623 -327 -644 0 -3 -124 -259 -300 -620 -181 -372 -368 -760 -490
-1020 -36 -77 -80 -169 -218 -455 -200 -417 -207 -435 -200 -508 5 -48 14 -65
115 -219 101 -152 316 -395 508 -574 66 -61 243 -204 321 -259 212 -149 551
-328 780 -413 192 -72 489 -152 637 -173 23 -4 49 -7 57 -9 8 -1 42 -5 75 -9
33 -4 71 -10 85 -13 59 -13 607 -10 720 3 793 96 1491 434 2050 994 356 355
628 774 804 1236 91 241 174 582 202 834 3 30 8 66 11 80 11 61 10 551 -3 670
-19 185 -35 289 -55 380 -6 25 -13 56 -15 69 -38 196 -147 509 -262 751 -98
205 -219 403 -422 690 -104 147 -395 418 -645 602 -49 37 -101 75 -115 86
-131 99 -515 297 -730 375 -150 56 -360 118 -442 132 -18 3 -49 10 -68 15 -46
11 -209 38 -285 46 -33 3 -73 8 -90 11 -35 5 -511 13 -516 9z"/>
<path d="M5295 5011 c-68 -32 -127 -81 -489 -411 -21 -19 -48 -44 -60 -55
-160 -145 -213 -194 -236 -215 -227 -212 -359 -329 -395 -351 -53 -33 -67 -24
-335 225 -30 28 -107 98 -170 156 -63 58 -150 139 -195 181 -252 241 -423 394
-488 437 -30 20 -52 26 -100 27 -96 2 -148 -31 -142 -90 2 -16 122 -265 267
-553 l263 -523 135 -132 c74 -73 171 -165 215 -206 44 -40 143 -133 221 -207
275 -261 297 -270 400 -177 88 80 250 231 353 329 158 151 241 228 256 237 19
10 42 -1 48 -23 3 -11 3 -144 0 -297 -5 -288 -6 -1051 -3 -1183 3 -72 4 -76
40 -112 l38 -38 258 0 c276 1 274 0 308 52 17 26 18 101 18 1431 0 1387 0
1404 -20 1450 -11 25 -29 50 -40 56 -31 17 -102 13 -147 -8z"/>
<path d="M273 4578 c-5 -7 -17 -29 -26 -48 -9 -19 -34 -57 -57 -84 -45 -54
-50 -84 -19 -112 27 -25 57 -19 94 16 21 21 42 30 70 31 22 1 46 7 53 12 19
15 14 50 -13 87 -14 19 -25 42 -25 53 0 47 -52 78 -77 45z"/>
<path d="M125 4169 c-47 -51 -71 -116 -74 -194 -1 -34 -13 -97 -26 -140 -19
-66 -23 -98 -21 -185 2 -58 8 -123 14 -145 20 -73 27 -161 17 -210 -8 -40 22
-70 59 -61 41 10 47 33 35 133 -10 85 -10 92 15 150 14 35 28 90 31 129 9 110
15 153 25 197 14 61 12 150 -4 188 -18 43 -18 41 -1 90 22 61 20 84 -9 87 -16
1 -35 -11 -61 -39z"/>
<path d="M630 4130 c-38 -38 13 -97 59 -68 12 7 21 23 21 38 0 50 -44 66 -80
30z"/>
<path d="M405 3728 c-23 -100 -21 -162 6 -179 18 -10 39 0 39 20 0 9 5 22 12
29 12 12 14 124 3 143 -4 5 -17 9 -30 9 -17 0 -26 -7 -30 -22z"/>
<path d="M749 3403 c-32 -80 -38 -119 -36 -221 3 -115 22 -176 58 -187 30 -10
58 12 65 51 6 32 0 155 -10 209 -2 11 -7 45 -10 76 -5 35 -15 65 -27 78 -25
27 -27 27 -40 -6z"/>
</g>
</svg>
